<?xml version="1.0" encoding="UTF-8" standalone="no"?>
<svg
   xmlns="http://www.w3.org/2000/svg"
   id="Layer_1"
   data-name="Layer 1"
   width="361.90298"
   height="447.2132"
   viewBox="0 0 45.473633 55.901651"
   version="1.1">
  <title
     id="title">Stone Soup Logo</title>
  <path
     style="fill:#f5df4d;stroke-width:0.88448256"
     d="m 19.948986,3.8209823 c -1.061379,0.9729308 -0.619137,4.157068 0.707586,5.9260331 1.945862,2.5649996 1.592069,5.3068956 -1.238275,10.5253426 -1.945862,3.449482 -2.476551,5.483791 -2.299655,8.048791 0.619138,5.837585 4.333965,9.817756 7.429654,7.871895 1.768965,-1.149828 1.768965,-2.653448 -0.08845,-6.279827 -1.415172,-2.830344 -1.415172,-3.00724 1.592069,-8.667929 C 29.41295,14.788566 29.41295,11.604429 26.228813,6.2090852 24.548296,3.3787411 21.541055,2.2289137 19.948986,3.8209823 Z"
     id="path1" />
  <path
     style="fill:#939597;stroke-width:0.88448256"
     d="M 7.4777826,21.15684 C 2.4362321,27.790459 1.2864047,34.512527 4.2051972,40.792353 11.281058,56.182349 33.304673,56.978384 41.088119,42.030628 c 2.03431,-3.980171 2.388103,-11.852066 0.619138,-15.301548 -3.626378,-7.252757 -6.545171,-9.287067 -9.994653,-7.164308 -1.415172,0.884482 -0.97293,3.803275 0.707586,5.04155 3.626379,2.476551 5.218447,9.11017 3.272586,13.532583 -3.361034,8.13724 -14.859307,10.879136 -21.758271,5.129999 -5.8375846,-4.953102 -6.3682741,-12.6481 -1.238276,-18.131892 2.476552,-2.653448 2.741896,-4.245517 1.149828,-5.837585 C 11.988643,17.442013 9.7774373,18.1496 7.4777826,21.15684 Z"
     id="path2" />
</svg>
